<svg width="180" height="180" viewBox="0 0 180 180" xmlns="http://www.w3.org/2000/svg">
  <defs></defs>
  <ellipse style="fill: rgb(0,0,0);" cx="85" cy="85" rx="85" ry="85"></ellipse>
  <g transform="matrix(0.89002, 0, 0, 0.957882, 10.683616, 44.895252)" style="">
    <path d="M 99.888 29.697 C 108.946 28.599 116.494 24.482 124.18 20.502 C 129.944 17.619 135.571 14.737 141.473 11.992 C 145.041 10.345 148.747 9.385 152.727 9.659 C 159.864 10.208 164.53 14.874 164.53 22.148 C 164.53 31.893 159.864 39.304 151.629 44.245 C 142.571 49.735 133.101 49.735 123.494 45.617 C 115.808 42.323 109.22 37.245 102.77 32.03 C 101.946 31.481 100.985 30.658 99.888 29.697 Z" fill="#7CBFE7"></path>
    <path fill-rule="evenodd" clip-rule="evenodd" d="M 117.592 71.008 C 133.101 72.38 145.727 67.027 155.197 53.989 C 154.511 54.264 154.236 54.401 153.962 54.538 C 145.178 57.832 136.257 58.518 127.199 56.46 C 118.141 54.401 110.318 50.009 102.907 44.931 C 92.202 37.657 82.595 29.011 72.988 20.364 L 72.987 20.364 C 66.674 14.737 60.086 9.522 52.538 5.542 C 45.401 1.699 37.853 -0.36 29.618 0.052 C 13.972 1.013 1.345 13.365 0.11 29.011 C -0.713 39.99 3.13 49.46 9.855 57.969 L 11.09 59.204 C 11.364 53.989 12.599 49.323 15.756 45.343 C 22.481 36.834 31.265 34.775 41.421 36.834 C 48.146 38.069 54.048 41.5 59.812 44.931 C 61.269 45.814 62.726 46.701 64.184 47.588 C 71.791 52.217 79.429 56.865 87.261 61.126 C 96.731 66.341 106.75 70.047 117.592 71.008 Z M 93.848 89.124 C 103.592 87.889 112.788 85.144 121.572 80.889 C 120.539 80.756 119.507 80.631 118.476 80.506 C 115.26 80.116 112.063 79.729 108.945 79.105 C 97.828 77.046 87.809 72.38 78.202 66.89 C 72.163 63.413 66.247 59.814 60.33 56.215 C 57.371 54.416 54.413 52.617 51.439 50.833 C 47.185 48.362 42.793 46.441 37.852 45.617 C 29.755 44.382 22.892 48.088 20.834 55.087 C 19.187 60.577 20.971 65.381 24.265 69.772 C 27.01 73.341 30.578 75.811 34.421 78.007 C 53.086 88.163 72.85 91.869 93.848 89.124 Z" fill="#7CFC00"></path>
  </g>
</svg>
